<?xml version="1.0" ?><svg width="35px" height="35px" viewBox="0 0 35 35" data-name="Layer 2" id="bcf93df8-c417-41a3-bf60-13ba345ecb8c" xmlns="http://www.w3.org/2000/svg"><path d="M30.559,34.75H4.441A4.2,4.2,0,0,1,.25,30.559V4.441A4.2,4.2,0,0,1,4.441.25H30.559A4.2,4.2,0,0,1,34.75,4.441V30.559A4.2,4.2,0,0,1,30.559,34.75ZM4.441,2.75A1.693,1.693,0,0,0,2.75,4.441V30.559A1.693,1.693,0,0,0,4.441,32.25H30.559a1.692,1.692,0,0,0,1.691-1.691V4.441A1.693,1.693,0,0,0,30.559,2.75Z"/><path d="M32.217,11.8h-2.16a1.25,1.25,0,0,1,0-2.5h2.16a1.25,1.25,0,0,1,0,2.5Z"/><path d="M23.047,11.8H3.357a1.25,1.25,0,1,1,0-2.5h19.69a1.25,1.25,0,0,1,0,2.5Z"/><path d="M17.5,7.667a1.5,1.5,0,0,0,0-3,1.5,1.5,0,0,0,0,3Z"/><path d="M16.164,28.1l-.1,0h0l-3.018-.121A2.567,2.567,0,0,1,10.6,25.53l-.121-3.018a2.564,2.564,0,0,1,.747-1.908L23.736,8.093a4.084,4.084,0,0,1,5.768,0l.981.982a4.081,4.081,0,0,1,0,5.767L17.973,27.354A2.568,2.568,0,0,1,16.164,28.1Zm0-2.5h0a.059.059,0,0,0,.042-.017l12.511-12.51a1.582,1.582,0,0,0,0-2.233l-.982-.981a1.617,1.617,0,0,0-2.232,0L12.992,22.372,13.1,25.43Z"/><rect height="6.631" transform="translate(-2.408 21.601) rotate(-45)" width="2.5" x="23.622" y="10.392"/></svg>