<?xml version="1.0" encoding="UTF-8" standalone="no"?>
<svg
   width="16"
   height="16"
   fill="currentColor"
   class="bi bi-trash"
   viewBox="0 0 16 16"
   version="1.1"
   id="svg75"
   sodipodi:docname="delete.svg"
   xmlns="http://www.w3.org/2000/svg"
   xmlns:svg="http://www.w3.org/2000/svg">
  <defs
     id="defs79" />
  <sodipodi:namedview
     id="namedview77"
     pagecolor="#505050"
     bordercolor="#eeeeee"
     borderopacity="1"
     inkscape:showpageshadow="0"
     inkscape:pageopacity="0"
     inkscape:pagecheckerboard="0"
     inkscape:deskcolor="#505050"
     showgrid="false"
     inkscape:zoom="64.1875"
     inkscape:cx="4.8841285"
     inkscape:cy="7.9922103"
     inkscape:window-width="2560"
     inkscape:window-height="1351"
     inkscape:window-x="0"
     inkscape:window-y="58"
     inkscape:window-maximized="1"
     inkscape:current-layer="svg75" />
  <path
     d="M5.5 5.5A.5.5 0 0 1 6 6v6a.5.5 0 0 1-1 0V6a.5.5 0 0 1 .5-.5zm2.5 0a.5.5 0 0 1 .5.5v6a.5.5 0 0 1-1 0V6a.5.5 0 0 1 .5-.5zm3 .5a.5.5 0 0 0-1 0v6a.5.5 0 0 0 1 0V6z"
     id="path71" />
  <path
     fill-rule="evenodd"
     d="M14.5 3a1 1 0 0 1-1 1H13v9a2 2 0 0 1-2 2H5a2 2 0 0 1-2-2V4h-.5a1 1 0 0 1-1-1V2a1 1 0 0 1 1-1H6a1 1 0 0 1 1-1h2a1 1 0 0 1 1 1h3.5a1 1 0 0 1 1 1v1zM4.118 4 4 4.059V13a1 1 0 0 0 1 1h6a1 1 0 0 0 1-1V4.059L11.882 4H4.118zM2.5 3V2h11v1h-11z"
     id="path73" />
  <path
     style="fill:#f6f6f6;stroke-width:0.0155794;stroke:#f6f6f6;fill-opacity:1;stroke-opacity:1"
     d="M 4.6650385,14.963054 C 3.9497268,14.842807 3.3370262,14.315064 3.1105919,13.624148 3.0073092,13.309003 3.0164743,13.768912 3.0111659,8.6348588 l -0.0048,-4.6465433 H 2.6897041 c -0.4363786,0 -0.5813754,-0.038484 -0.7981177,-0.2118318 C 1.7051493,3.6273739 1.5829852,3.4370222 1.5348385,3.2206116 1.5132648,3.1236421 1.5103265,3.0119861 1.5146452,2.4532725 1.5194803,1.8277591 1.5211856,1.7950261 1.5539844,1.69815 1.6533322,1.4047123 1.8739143,1.1793609 2.1773468,1.0613097 l 0.1050291,-0.040862 1.865628,-0.0042 1.865628,-0.0042 2.306e-4,-0.0736955 C 6.0142208,0.82368832 6.0551486,0.67691727 6.1232848,0.54595094 6.2785488,0.24751391 6.5604892,0.05451814 6.8976324,0.01588939 7.0782813,-0.00480877 8.9235259,-0.00460114 9.1045537,0.01613771 9.4378656,0.0543225 9.7225757,0.24967422 9.8767159,0.54595093 9.944852,0.67691727 9.9857798,0.8236883 9.9861381,0.9383498 l 2.3e-4,0.0736955 1.8656279,0.0042 1.865628,0.0042 0.105029,0.040862 c 0.302049,0.1175128 0.524468,0.344741 0.623363,0.6368403 0.0328,0.096876 0.0345,0.1296091 0.03934,0.7551225 0.0043,0.5510449 0.0012,0.6711855 -0.01946,0.7640627 -0.07925,0.3562206 -0.363979,0.6495065 -0.718604,0.7402042 -0.100456,0.025692 -0.172642,0.030776 -0.436991,0.030776 h -0.316658 l -0.0048,4.6465433 c -0.0053,5.1331947 0.0038,4.6731787 -0.09921,4.9892897 -0.225895,0.692953 -0.846061,1.222715 -1.568548,1.339894 -0.203738,0.03304 -6.4591181,0.03212 -6.6560385,-9.88e-4 z m 6.5768705,-0.988599 c 0.156248,-0.0398 0.264628,-0.09268 0.38044,-0.185622 0.166177,-0.133366 0.290313,-0.317478 0.352635,-0.52301 0.02709,-0.08932 0.02854,-0.296006 0.0327,-4.6511412 l 0.0044,-4.5576648 -0.0707,-0.034351 -0.0707,-0.034351 H 8 4.1293632 l -0.070704,0.034351 -0.070704,0.034351 0.00436,4.5576648 c 0.00416,4.3551352 0.00562,4.5618182 0.032703,4.6511412 0.1079036,0.355856 0.3854495,0.625098 0.7322797,0.710372 0.1041394,0.0256 0.3110877,0.02743 3.2363175,0.0285 3.0834286,0.0011 3.1267056,7.29e-4 3.2482956,-0.03024 z M 13.507303,2.5004869 V 1.9941577 H 8 2.4926972 V 2.5004869 3.006816 H 8 13.507303 Z"
     id="path604" />
  <path
     style="fill:#f6f6f6;fill-opacity:1;stroke:#f6f6f6;stroke-width:0.0155794;stroke-opacity:1"
     d="m 10.390466,12.480951 c -0.09291,-0.02402 -0.214946,-0.103426 -0.274315,-0.178496 -0.11506,-0.145488 -0.107173,0.110846 -0.102671,-3.3371507 l 0.004,-3.0996763 0.04198,-0.079573 c 0.05332,-0.1010556 0.17848,-0.2141336 0.272472,-0.2461596 0.09315,-0.031738 0.243868,-0.031738 0.337014,0 0.09399,0.032026 0.219156,0.145104 0.272471,0.2461596 l 0.04198,0.079573 0.004,3.0996763 c 0.0045,3.4430787 0.01237,3.1848907 -0.101674,3.3345987 -0.105921,0.139046 -0.334562,0.222613 -0.495354,0.181048 z"
     id="path1703" />
  <path
     style="fill:#f6f6f6;fill-opacity:1;stroke:#f6f6f6;stroke-width:0.0155794;stroke-opacity:1"
     d="m 7.8745949,12.47435 c -0.15026,-0.04248 -0.2875072,-0.169461 -0.33724,-0.312005 -0.026722,-0.07659 -0.028105,-0.232726 -0.028105,-3.1730558 V 5.8967868 l 0.040524,-0.086397 C 7.6063605,5.6897456 7.6746977,5.6178541 7.7853507,5.5625602 7.8664757,5.5220215 7.8978088,5.5150925 8,5.5150925 c 0.2054321,0 0.3589473,0.1006884 0.4502261,0.2952969 l 0.040524,0.086397 v 3.0925024 c 0,3.4969612 0.01208,3.1786322 -0.1264712,3.3327342 -0.1237631,0.137655 -0.3227004,0.199538 -0.489684,0.152327 z"
     id="path1705" />
  <path
     style="fill:#f6f6f6;fill-opacity:1;stroke:#f6f6f6;stroke-width:0.0155794;stroke-opacity:1"
     d="M 5.3878499,12.480654 C 5.2951924,12.456795 5.1730101,12.375584 5.1135941,12.298364 5.0002528,12.15106 5.0080124,12.406908 5.012506,8.9653043 L 5.016556,5.865628 5.058537,5.786055 C 5.111852,5.6849994 5.2370171,5.5719214 5.3310083,5.5398954 c 0.093146,-0.031738 0.2438683,-0.031738 0.3370147,0 0.093991,0.032026 0.2191559,0.145104 0.2724713,0.2461596 l 0.041981,0.079573 0.00405,3.0996763 c 0.0045,3.4489077 0.012447,3.1915537 -0.1030191,3.3376287 -0.1107129,0.140062 -0.3327368,0.219671 -0.4956513,0.177721 z"
     id="path1707" />
</svg>
